<svg width="30" height="26" viewBox="0 0 30 26" fill="none" xmlns="http://www.w3.org/2000/svg">
<g opacity="0.4">
<path d="M27.6569 3.64548H6.53241L6.08903 1.0739C6.03577 0.772907 5.8782 0.500293 5.64397 0.303902C5.40975 0.107512 5.11383 -0.000105556 4.80816 -6.10213e-05H1.30056C0.955624 -6.10141e-05 0.624819 0.136963 0.380914 0.380868C0.137009 0.624773 -1.52588e-05 0.955579 -1.52588e-05 1.30051C-1.52588e-05 1.64545 0.137009 1.97625 0.380914 2.22016C0.624819 2.46406 0.955624 2.60108 1.30056 2.60108H3.70465L4.54214 7.36L5.81315 16.6019C5.88039 17.1454 6.14379 17.6455 6.55384 18.0084C6.96388 18.3712 7.49234 18.5719 8.03989 18.5725H26.2381C26.7856 18.5719 27.3141 18.3712 27.7241 18.0084C28.1342 17.6455 28.3976 17.1454 28.4648 16.6019L29.8836 6.20722C29.9288 5.88854 29.9049 5.56388 29.8137 5.25522C29.7225 4.94656 29.566 4.6611 29.3549 4.41818C29.1437 4.17526 28.8828 3.98055 28.5899 3.84724C28.2969 3.71393 27.9787 3.64512 27.6569 3.64548Z" fill="#EFE3C8"/>
<path d="M10.9462 20.4815C10.4001 20.4815 9.86632 20.6435 9.41243 20.9471C8.95854 21.2507 8.60495 21.6821 8.39643 22.1868C8.18792 22.6915 8.13386 23.2467 8.24111 23.7821C8.34836 24.3175 8.61209 24.8091 8.9989 25.1945C9.38571 25.5799 9.8782 25.8419 10.414 25.9472C10.9498 26.0526 11.5048 25.9965 12.0087 25.7862C12.5127 25.5759 12.9429 25.2208 13.2448 24.7658C13.5468 24.3108 13.7069 23.7765 13.7049 23.2304C13.7049 22.8686 13.6335 22.5103 13.4948 22.1761C13.356 21.842 13.1526 21.5385 12.8963 21.2831C12.64 21.0277 12.3358 20.8254 12.0012 20.6879C11.6665 20.5503 11.308 20.4802 10.9462 20.4815Z" fill="#EFE3C8"/>
<path d="M22.9867 20.4819C22.4429 20.4916 21.9141 20.6619 21.4667 20.9713C21.0193 21.2807 20.6734 21.7155 20.4725 22.2209C20.2715 22.7264 20.2244 23.28 20.3372 23.8121C20.4499 24.3442 20.7174 24.8311 21.1061 25.2116C21.4948 25.5921 21.9873 25.8493 22.5217 25.9507C23.0561 26.0521 23.6086 25.9932 24.1097 25.7815C24.6107 25.5699 25.038 25.2148 25.3378 24.7609C25.6377 24.3071 25.7967 23.7748 25.7948 23.2308C25.7936 22.8652 25.7196 22.5034 25.5773 22.1666C25.435 21.8298 25.2272 21.5246 24.9659 21.2688C24.7046 21.0131 24.3951 20.8118 24.0553 20.6767C23.7156 20.5416 23.3523 20.4754 22.9867 20.4819Z" fill="#EFE3C8"/>
</g>
</svg>
