<svg width="24" height="27" viewBox="0 0 24 27" fill="none" xmlns="http://www.w3.org/2000/svg">
<path d="M23.9038 13.5958C23.8775 13.0358 23.8425 12.4889 23.8075 11.9596C23.714 10.7267 23.1651 9.5727 22.2676 8.72226L20.1196 6.67924L13.9118 0.764545C13.3954 0.273705 12.7102 0 11.9978 0C11.2854 0 10.6002 0.273705 10.0838 0.764545L3.88042 6.67924L1.73241 8.72226C0.831212 9.57049 0.280279 10.7254 0.188115 11.9596C0.131243 12.7427 0.083121 13.5608 0.0524976 14.4051C0.0174995 15.3588 0 16.3519 0 17.3668C0 19.3923 0.0743717 21.3041 0.205615 23.054C0.250258 23.705 0.517071 24.3209 0.961425 24.7987C1.40578 25.2765 2.00072 25.5872 2.64674 25.6789C3.14546 25.7445 3.67481 25.8101 4.23041 25.867C5.13598 25.9589 6.11593 26.0332 7.15275 26.0901C7.3431 26.1014 7.53375 26.0737 7.71301 26.0087C7.89228 25.9438 8.05637 25.8428 8.19524 25.7122C8.33411 25.5815 8.44481 25.4238 8.52057 25.2488C8.59633 25.0738 8.63554 24.8852 8.6358 24.6945V17.8218C8.6358 17.1256 8.91235 16.458 9.4046 15.9657C9.89686 15.4735 10.5645 15.1969 11.2607 15.1969H12.7393C13.4355 15.1969 14.1031 15.4735 14.5954 15.9657C15.0877 16.458 15.3642 17.1256 15.3642 17.8218V24.6902C15.3645 24.8809 15.4037 25.0695 15.4794 25.2445C15.5552 25.4194 15.6659 25.5771 15.8048 25.7078C15.9436 25.8385 16.1077 25.9394 16.287 26.0044C16.4663 26.0694 16.6569 26.097 16.8472 26.0857C17.8841 26.0289 18.864 25.9545 19.7696 25.8626C20.3252 25.8057 20.8545 25.7401 21.3533 25.6745C21.9993 25.5828 22.5942 25.2721 23.0386 24.7943C23.4829 24.3165 23.7497 23.7006 23.7944 23.0496V23.0496C23.9256 21.2997 24 19.3923 24 17.3624C23.9912 16.0631 23.9606 14.7944 23.9038 13.5958Z" fill="#EFE3C8"/>
</svg>
