<svg width="22" height="26" viewBox="0 0 22 26" fill="none" xmlns="http://www.w3.org/2000/svg">
<g opacity="0.4">
<path d="M19.545 10.5362C19.5451 9.6553 19.4002 8.78042 19.1161 7.94662C18.622 6.54434 17.7685 5.29628 16.641 4.3271C15.5135 3.35793 14.1514 2.70157 12.6908 2.4236C12.6908 2.4236 12.7839 2.20915 12.5816 1.66292C12.2255 0.659465 11.6307 -6.10352e-05 10.9631 -6.10352e-05C10.2955 -6.10352e-05 9.69663 0.651372 9.34462 1.65078C9.14635 2.21319 9.23537 2.4236 9.23537 2.4236V2.44383C7.77701 2.71718 6.41612 3.36907 5.28911 4.33416C4.16211 5.29925 3.30858 6.54364 2.8141 7.94257C2.52713 8.77716 2.38082 9.65362 2.38116 10.5362C2.38116 13.672 1.89966 16.5731 1.02569 18.7013C0.939336 18.9078 0.898948 19.1305 0.907333 19.3541C0.915717 19.5777 0.972673 19.7968 1.07424 19.9961C1.17759 20.193 1.32038 20.3664 1.49372 20.5056C1.66706 20.6449 1.86723 20.7469 2.08174 20.8053C3.60626 21.2416 5.1638 21.5528 6.73888 21.736L7.23251 21.7926C9.67537 22.0435 12.1375 22.0435 14.5804 21.7926H14.6937L15.1832 21.736C16.7659 21.5626 18.3316 21.2595 19.8647 20.8296C20.0813 20.7684 20.2829 20.6627 20.4563 20.5191C20.6298 20.3756 20.7714 20.1975 20.8722 19.9961C20.9733 19.7974 21.0303 19.5792 21.0394 19.3565C21.0484 19.1337 21.0093 18.9117 20.9248 18.7054C20.0265 16.5731 19.545 13.672 19.545 10.5362Z" fill="#EFE3C8"/>
<path d="M14.9089 22.6354L14.6418 22.6637C13.4229 22.8142 12.196 22.8912 10.9679 22.8943C9.73684 22.8972 8.50692 22.8202 7.28587 22.6637L7.01882 22.6354C6.99343 22.6317 6.96753 22.6344 6.94347 22.6433C6.91941 22.6522 6.89795 22.667 6.88106 22.6863C6.86417 22.7056 6.85237 22.7288 6.84675 22.7539C6.84113 22.7789 6.84186 22.8049 6.84888 22.8296C7.08915 23.7376 7.62303 24.5407 8.36732 25.1137C9.11162 25.6867 10.0245 25.9973 10.9638 25.9973C11.9031 25.9973 12.816 25.6867 13.5603 25.1137C14.3046 24.5407 14.8385 23.7376 15.0788 22.8296C15.0858 22.8049 15.0865 22.7789 15.0809 22.7539C15.0753 22.7288 15.0635 22.7056 15.0466 22.6863C15.0297 22.667 15.0083 22.6522 14.9842 22.6433C14.9601 22.6344 14.9342 22.6317 14.9089 22.6354Z" fill="#EFE3C8"/>
</g>
</svg>
